<svg id="Capa_1" data-name="Capa 1" xmlns="http://www.w3.org/2000/svg" viewBox="0 0 200.29 90.77"><path d="M52.57,23c0-7.61-3.22-7.5-3.22-7.5H20.7C15.89,15.45,8.23,30.2,4.52,38a22,22,0,0,0-2.16,9.55V65C0,65.77,0,69,0,69v4.1a5.55,5.55,0,0,0,1.2,3.54,2.91,2.91,0,0,0,2.3,1.08H19a1.49,1.49,0,0,0,1.49-1.38,16.84,16.84,0,0,1,1.94-6.65,16.67,16.67,0,0,1,23-6.53,1.52,1.52,0,0,0,1.59,0L51.88,60a1.5,1.5,0,0,0,.69-1.26ZM7.32,64a.49.49,0,0,1-.5.49h-2a.5.5,0,0,1-.5-.5V55.63a1,1,0,0,1,.42-.81,5.73,5.73,0,0,1,2-.89.5.5,0,0,1,.61.49Zm4.11-17.73c-1.42.42-3.12.63-3.12-2.38,0-5.31,9.17-22.74,11.43-23.7s6.43-.86,6.43-.86H39.9c2.79,0,2.79,1.61,2.79,1.61V33.58a3.78,3.78,0,0,1-2.46,3.75ZM45,51.7H39.59s-1.94.06-.45-1.93,6.06-1.69,6.06-1.69,1.06-.2,1.06,1.77S45,51.7,45,51.7Z"/><path d="M37.08,64.31A13.23,13.23,0,1,0,50.31,77.54,13.25,13.25,0,0,0,37.08,64.31Zm0,21.56a8.33,8.33,0,1,1,8.32-8.33A8.34,8.34,0,0,1,37.08,85.87Z"/><path d="M37.08,72.2a5.34,5.34,0,1,0,5.34,5.34A5.35,5.35,0,0,0,37.08,72.2Z"/><path d="M154.76,72.2a5.34,5.34,0,1,0,5.33,5.34A5.35,5.35,0,0,0,154.76,72.2Z"/><path d="M183.13,72.2a5.34,5.34,0,1,0,5.34,5.34A5.35,5.35,0,0,0,183.13,72.2Z"/><path d="M176.46,4.84A28.81,28.81,0,0,0,172,4.49h-8.65v5.56h13.13Z"/><rect x="163.33" y="21.41" width="13.13" height="6.37"/><rect x="163.33" y="30.28" width="13.13" height="6.37"/><rect x="163.33" y="12.55" width="13.13" height="6.37"/><path d="M83.38,61.11H172a28.31,28.31,0,0,0,7-55.75v35.2a1.25,1.25,0,0,1-2.5,0V39.15H163.33v1.41a1.25,1.25,0,0,1-2.5,0V4.49H138.78a1.28,1.28,0,0,0,.06-.34V2.4c0-.55,0-2.4-1.61-2.4h-19.1c-1.62,0-1.62,1.85-1.62,2.4V4.15a1.28,1.28,0,0,0,.06.34H83.38a28.31,28.31,0,0,0,0,56.62Z"/><path d="M197.69,63.36H54.07a1.5,1.5,0,0,0-1.5,1.5V75.33a1.5,1.5,0,0,0,1.5,1.5H69.62V71.21a4.51,4.51,0,0,1,4.5-4.5H97.69a4.5,4.5,0,0,1,4.49,4.5v5.62h30.5a1.51,1.51,0,0,0,1.51-1.5V68.8h10.66a13.24,13.24,0,1,0,19.81,0h8.56a13.23,13.23,0,1,0,19.82,0h4.65a1.51,1.51,0,0,0,1.5-1.51V64.86A1.5,1.5,0,0,0,197.69,63.36ZM154.76,85.87a8.33,8.33,0,1,1,8.32-8.33A8.34,8.34,0,0,1,154.76,85.87Zm28.37,0a8.33,8.33,0,1,1,8.33-8.33A8.34,8.34,0,0,1,183.13,85.87Z"/><rect x="72.12" y="69.21" width="27.56" height="12.24" rx="1.99"/></svg>